<svg width="40" height="40" viewBox="0 0 40 40" fill="none" xmlns="http://www.w3.org/2000/svg">
<mask id="mask0_1_2863" style="mask-type:alpha" maskUnits="userSpaceOnUse" x="0" y="0" width="40" height="40">
<rect width="40" height="40" fill="#D9D9D9"/>
</mask>
<g mask="url(#mask0_1_2863)">
<path d="M15.0834 30.0414H24.9167C25.4167 30.0414 25.8334 29.8747 26.1667 29.5414C26.5 29.208 26.6667 28.7914 26.6667 28.2914C26.6667 27.7914 26.5 27.3747 26.1667 27.0414C25.8334 26.708 25.4167 26.5414 24.9167 26.5414H15.0834C14.5834 26.5414 14.1667 26.708 13.8334 27.0414C13.5 27.3747 13.3334 27.7914 13.3334 28.2914C13.3334 28.7914 13.5 29.208 13.8334 29.5414C14.1667 29.8747 14.5834 30.0414 15.0834 30.0414ZM15.0834 23.3747H24.9167C25.4167 23.3747 25.8334 23.208 26.1667 22.8747C26.5 22.5414 26.6667 22.1247 26.6667 21.6247C26.6667 21.1247 26.5 20.708 26.1667 20.3747C25.8334 20.0414 25.4167 19.8747 24.9167 19.8747H15.0834C14.5834 19.8747 14.1667 20.0414 13.8334 20.3747C13.5 20.708 13.3334 21.1247 13.3334 21.6247C13.3334 22.1247 13.5 22.5414 13.8334 22.8747C14.1667 23.208 14.5834 23.3747 15.0834 23.3747ZM10.125 36.9997C9.06948 36.9997 8.17393 36.6319 7.43837 35.8964C6.70171 35.1597 6.33337 34.2636 6.33337 33.208V6.79136C6.33337 5.73581 6.70171 4.83969 7.43837 4.10303C8.17393 3.36747 9.06948 2.99969 10.125 2.99969H21.9167C22.4167 2.99969 22.8962 3.09692 23.355 3.29136C23.8128 3.48581 24.2223 3.7497 24.5834 4.08303L32.5834 12.083C32.9167 12.4441 33.1806 12.8536 33.375 13.3114C33.5695 13.7703 33.6667 14.2497 33.6667 14.7497V33.208C33.6667 34.2636 33.2989 35.1597 32.5634 35.8964C31.8267 36.6319 30.9306 36.9997 29.875 36.9997H10.125ZM21.5417 13.208C21.5417 13.7636 21.7223 14.2219 22.0834 14.583C22.4445 14.9441 22.9028 15.1247 23.4584 15.1247H29.875L21.5417 6.79136V13.208Z" fill="#1CD2AD"/>
</g>
</svg>
