<svg width="40" height="40" viewBox="0 0 40 40" fill="none" xmlns="http://www.w3.org/2000/svg">
<mask id="mask0_1_2860" style="mask-type:alpha" maskUnits="userSpaceOnUse" x="0" y="0" width="40" height="40">
<rect width="40" height="40" fill="#D9D9D9"/>
</mask>
<g mask="url(#mask0_1_2860)">
<path d="M10.0417 37.292C8.54171 37.292 7.25671 36.7576 6.18671 35.6887C5.11782 34.6187 4.58337 33.3337 4.58337 31.8337V28.3753C4.58337 27.8476 4.77115 27.4031 5.14671 27.042C5.52115 26.6809 5.97226 26.5003 6.50004 26.5003H9.75004V4.50035C9.75004 4.16701 9.86782 3.96535 10.1034 3.89535C10.34 3.82646 10.5973 3.9309 10.875 4.20868L12.3334 5.66701L14.2084 3.75035C14.4028 3.5559 14.6323 3.45868 14.8967 3.45868C15.16 3.45868 15.3889 3.5559 15.5834 3.75035L17.4584 5.66701L19.3334 3.75035C19.5278 3.5559 19.75 3.45868 20 3.45868C20.25 3.45868 20.4723 3.5559 20.6667 3.75035L22.5834 5.66701L24.4584 3.75035C24.6528 3.5559 24.875 3.45868 25.125 3.45868C25.375 3.45868 25.5973 3.5559 25.7917 3.75035L27.7084 5.66701L29.5834 3.75035C29.7778 3.5559 30 3.45868 30.25 3.45868C30.5 3.45868 30.7223 3.5559 30.9167 3.75035L32.8334 5.66701L34.2917 4.20868C34.5417 3.9309 34.7917 3.81979 35.0417 3.87535C35.2917 3.9309 35.4167 4.13923 35.4167 4.50035V31.8337C35.4167 33.3337 34.8823 34.6187 33.8134 35.6887C32.7434 36.7576 31.4584 37.292 29.9584 37.292H10.0417ZM29.9584 33.5003C30.4306 33.5003 30.8267 33.3403 31.1467 33.0203C31.4656 32.7015 31.625 32.3059 31.625 31.8337V8.62535H13.5417V26.5003H26.375C26.9028 26.5003 27.3545 26.6809 27.73 27.042C28.1045 27.4031 28.2917 27.8476 28.2917 28.3753V31.8337C28.2917 32.3059 28.4517 32.7015 28.7717 33.0203C29.0906 33.3403 29.4862 33.5003 29.9584 33.5003ZM16.8334 15.3753C16.3612 15.3753 15.9723 15.2159 15.6667 14.897C15.3612 14.577 15.2084 14.1809 15.2084 13.7087C15.2084 13.2365 15.3684 12.8403 15.6884 12.5203C16.0073 12.2015 16.4028 12.042 16.875 12.042H23.2917C23.7639 12.042 24.16 12.2015 24.48 12.5203C24.7989 12.8403 24.9584 13.2365 24.9584 13.7087C24.9584 14.1809 24.7989 14.577 24.48 14.897C24.16 15.2159 23.7639 15.3753 23.2917 15.3753H16.8334ZM16.8334 20.3753C16.3612 20.3753 15.9723 20.2159 15.6667 19.897C15.3612 19.577 15.2084 19.1809 15.2084 18.7087C15.2084 18.2365 15.3684 17.8403 15.6884 17.5203C16.0073 17.2015 16.4028 17.042 16.875 17.042H23.2917C23.7639 17.042 24.16 17.2015 24.48 17.5203C24.7989 17.8403 24.9584 18.2365 24.9584 18.7087C24.9584 19.1809 24.7989 19.577 24.48 19.897C24.16 20.2159 23.7639 20.3753 23.2917 20.3753H16.8334ZM28.2917 15.3753C27.8195 15.3753 27.4239 15.2159 27.105 14.897C26.785 14.577 26.625 14.1809 26.625 13.7087C26.625 13.2365 26.785 12.8403 27.105 12.5203C27.4239 12.2015 27.8195 12.042 28.2917 12.042C28.7639 12.042 29.16 12.2015 29.48 12.5203C29.7989 12.8403 29.9584 13.2365 29.9584 13.7087C29.9584 14.1809 29.7989 14.577 29.48 14.897C29.16 15.2159 28.7639 15.3753 28.2917 15.3753ZM28.2917 20.3753C27.8195 20.3753 27.4239 20.2159 27.105 19.897C26.785 19.577 26.625 19.1809 26.625 18.7087C26.625 18.2365 26.785 17.8403 27.105 17.5203C27.4239 17.2015 27.8195 17.042 28.2917 17.042C28.7639 17.042 29.16 17.2015 29.48 17.5203C29.7989 17.8403 29.9584 18.2365 29.9584 18.7087C29.9584 19.1809 29.7989 19.577 29.48 19.897C29.16 20.2159 28.7639 20.3753 28.2917 20.3753Z" fill="#1CD2AD"/>
</g>
</svg>
