<svg width="40" height="40" viewBox="0 0 40 40" fill="none" xmlns="http://www.w3.org/2000/svg">
<mask id="mask0_1_2866" style="mask-type:alpha" maskUnits="userSpaceOnUse" x="0" y="0" width="40" height="40">
<rect y="40" width="40" height="40" transform="rotate(-90 0 40)" fill="#D9D9D9"/>
</mask>
<g mask="url(#mask0_1_2866)">
<path d="M33.791 19.9985C33.791 20.943 33.451 21.7624 32.771 22.4569C32.0899 23.1513 31.2632 23.4985 30.291 23.4985C29.3465 23.4985 28.5338 23.1513 27.8526 22.4569C27.1726 21.7624 26.8326 20.943 26.8326 19.9985C26.8326 19.0263 27.1726 18.1996 27.8526 17.5185C28.5338 16.8385 29.3465 16.4985 30.291 16.4985C31.2632 16.4985 32.0899 16.8385 32.771 17.5185C33.451 18.1996 33.791 19.0263 33.791 19.9985ZM23.4993 19.9985C23.4993 20.943 23.1521 21.7624 22.4576 22.4569C21.7632 23.1513 20.9438 23.4985 19.9993 23.4985C19.0271 23.4985 18.2004 23.1513 17.5193 22.4569C16.8393 21.7624 16.4993 20.943 16.4993 19.9985C16.4993 19.0263 16.8393 18.1996 17.5193 17.5185C18.2004 16.8385 19.0271 16.4985 19.9993 16.4985C20.9438 16.4985 21.7632 16.8385 22.4576 17.5185C23.1521 18.1996 23.4993 19.0263 23.4993 19.9985ZM13.166 19.9985C13.166 20.943 12.8254 21.7624 12.1443 22.4569C11.4643 23.1513 10.6521 23.4985 9.70764 23.4985C8.73542 23.4985 7.90875 23.1513 7.22764 22.4569C6.54764 21.7624 6.20764 20.943 6.20764 19.9985C6.20764 19.0263 6.54764 18.1996 7.22764 17.5185C7.90875 16.8385 8.73542 16.4985 9.70764 16.4985C10.6521 16.4985 11.4643 16.8385 12.1443 17.5185C12.8254 18.1996 13.166 19.0263 13.166 19.9985Z" fill="#AAAAAA"/>
</g>
</svg>
